<?xml version="1.0" standalone="no"?>
<!DOCTYPE svg PUBLIC "-//W3C//DTD SVG 20010904//EN"
 "http://www.w3.org/TR/2001/REC-SVG-20010904/DTD/svg10.dtd">
<svg version="1.0" xmlns="http://www.w3.org/2000/svg"
 width="800.000000pt" height="800.000000pt" viewBox="0 0 800.000000 800.000000"
 preserveAspectRatio="xMidYMid meet">
<metadata>
Created by potrace 1.14, written by Peter Selinger 2001-2017
</metadata>
<g transform="translate(0.000000,800.000000) scale(0.100000,-0.100000)"
fill="#000000" stroke="none">
<path d="M0 4000 l0 -4000 4000 0 4000 0 0 4000 0 4000 -4000 0 -4000 0 0
-4000z m4636 2689 c192 -94 453 -222 579 -284 296 -145 645 -316 1118 -548
l377 -186 0 -391 0 -392 -23 6 c-13 3 -221 103 -462 222 -242 119 -521 256
-620 304 -99 48 -324 158 -500 245 -176 87 -444 218 -595 292 l-275 135 -260
-133 c-318 -162 -664 -338 -975 -496 -129 -66 -401 -205 -605 -308 -203 -103
-398 -203 -432 -222 l-63 -34 0 -979 0 -980 163 -2 162 -3 3 -272 2 -272 -467
-3 c-258 -2 -474 -1 -481 1 -10 2 -12 302 -10 1473 l3 1469 275 140 c151 77
426 217 610 311 184 94 430 219 545 278 214 110 458 234 1060 540 187 96 376
193 420 216 44 24 85 43 91 44 7 0 169 -77 360 -171z m-1235 -2861 l-3 -888
796 0 796 0 2 888 3 887 370 0 370 0 3 -1760 c1 -968 0 -1770 -3 -1782 l-5
-23 -370 0 -370 0 -2 588 -3 587 -790 0 -790 0 -3 -588 -2 -587 -368 2 -367 3
-3 1770 c-1 974 0 1776 3 1783 3 10 83 12 372 10 l368 -3 -4 -887z"/>
</g>
</svg>
